<?xml version="1.0" encoding="utf-8"?>
<!-- Generator: Adobe Illustrator 22.0.1, SVG Export Plug-In . SVG Version: 6.00 Build 0)  -->
<svg version="1.1" xmlns="http://www.w3.org/2000/svg" xmlns:xlink="http://www.w3.org/1999/xlink" x="0px" y="0px"
	 viewBox="0 0 400.9 133.6" style="enable-background:new 0 0 400.9 133.6;" xml:space="preserve">
<style type="text/css">
	.st0{fill:#FFB600;}
	.st1{fill:#212121;stroke:#000000;stroke-width:0.5;stroke-miterlimit:10;}
	.st2{display:none;}
	.st3{display:inline;fill:#212121;stroke:#000000;stroke-width:0.5;stroke-miterlimit:10;}
	.st4{font-family:'WatchwordBoldDemo';}
	.st5{font-size:24.7311px;}
	.st6{letter-spacing:7;}
</style>
<g id="Isolation_Mode">
	<circle cx="71.5" cy="49.6" r="9.5"/>
	<g>
		<g>
			<path d="M22.1,67.9c0-25.2,20.4-45.6,45.6-45.6c13.2,0,25.1,5.7,33.4,14.6l0.1-0.1l8.6-19.1c-7.7-6.4-16.9-11.2-27-13.5
				C78,3.1,72.9,2.5,67.7,2.5C33.9,2.5,6.1,28.1,2.6,60.9c-0.2,2.3-0.4,4.6-0.4,7c0,32.8,24.2,60,55.7,64.8l8-17.7
				C41.9,113.4,22.1,92.7,22.1,67.9z"/>
			<line x1="101.1" y1="37" x2="101.1" y2="37"/>
			<path d="M65.9,115"/>
		</g>
		<path class="st0" d="M65.9,115c5.5,1.1,11.2,1.7,17,1.7c12.9,0,25.1-2.9,36.1-8c21.3-9.9,37.9-28.3,45.3-50.9
			c-3.7,0.6-7.5,0.9-11.3,0.9c-7.3,0-14.3-1.1-20.9-3.1c-11.9-3.6-22.4-10.1-30.9-18.8 M101.1,37l-35.2,78"/>
	</g>
	<g>
		<path class="st1" d="M153.8,113l-8.4,8.4l7.9,9.9h-3.7l-6.3-7.9l-1.7,1.7v6.2h-2.9V113h2.9v8.1l8.1-8.1H153.8z"/>
		<path class="st1" d="M164.5,113l3.7,11.3l5.9-11.2l5.8,11.2l3.7-11.3h3l-6.2,18.8l-6.4-12.4l-6.5,12.4l-6.1-18.8H164.5z"/>
		<path class="st1" d="M197.4,127.9l-1.4,3.4h-3.1l8-18.8l8,18.8h-3.2l-1.4-3.4H197.4z M203,125.2l-2.2-5.3l-2.2,5.3H203z"/>
		<path class="st1" d="M228.4,115.9c-0.7-0.3-1.4-0.4-2.2-0.4c-1.8,0-3.4,0.6-4.6,1.9c-1.3,1.3-1.9,2.9-1.9,4.8
			c0,1.9,0.6,3.5,1.9,4.7c1.3,1.3,2.8,1.9,4.6,1.9c0.8,0,1.5-0.1,2.2-0.4c0.6-0.2,1.3-0.6,1.9-1.1l1.8,2.2c-0.8,0.7-1.7,1.2-2.7,1.6
			c-1,0.4-2.1,0.6-3.2,0.6c-2.6,0-4.8-0.9-6.7-2.8c-1.8-1.9-2.7-4.1-2.7-6.8s0.9-4.9,2.7-6.8c1.8-1.9,4-2.8,6.7-2.8
			c1.1,0,2.2,0.2,3.2,0.6c0.9,0.4,1.8,0.9,2.7,1.6l-1.8,2.2C229.7,116.5,229,116.1,228.4,115.9z"/>
		<path class="st1" d="M257,113l-8.4,8.4l7.9,9.9h-3.7l-6.3-7.9l-1.7,1.7v6.2h-2.9V113h2.9v8.1l8.1-8.1H257z"/>
		<path class="st1" d="M295.4,113l-8.4,8.4l7.9,9.9h-3.7l-6.3-7.9l-1.7,1.7v6.2h-2.9V113h2.9v8.1l8.1-8.1H295.4z"/>
		<path class="st1" d="M306.2,113l3.7,11.3l5.9-11.2l5.8,11.2l3.7-11.3h3l-6.2,18.8l-6.4-12.4l-6.5,12.4l-6.1-18.8H306.2z"/>
		<path class="st1" d="M339,127.9l-1.4,3.4h-3.1l8-18.8l8,18.8h-3.2l-1.4-3.4H339z M344.6,125.2l-2.2-5.3l-2.2,5.3H344.6z"/>
		<path class="st1" d="M370,115.9c-0.7-0.3-1.4-0.4-2.2-0.4c-1.8,0-3.4,0.6-4.6,1.9c-1.3,1.3-1.9,2.9-1.9,4.8c0,1.9,0.6,3.5,1.9,4.7
			c1.3,1.3,2.8,1.9,4.6,1.9c0.8,0,1.5-0.1,2.2-0.4c0.6-0.2,1.3-0.6,1.9-1.1l1.8,2.2c-0.8,0.7-1.7,1.2-2.7,1.6
			c-1,0.4-2.1,0.6-3.2,0.6c-2.6,0-4.8-0.9-6.7-2.8c-1.8-1.9-2.7-4.1-2.7-6.8s0.9-4.9,2.7-6.8c1.8-1.9,4-2.8,6.7-2.8
			c1.1,0,2.2,0.2,3.2,0.6c0.9,0.4,1.8,0.9,2.7,1.6l-1.8,2.2C371.3,116.5,370.7,116.1,370,115.9z"/>
		<path class="st1" d="M398.7,113l-8.4,8.4l7.9,9.9h-3.7l-6.3-7.9l-1.7,1.7v6.2h-2.9V113h2.9v8.1l8.1-8.1H398.7z"/>
	</g>
</g>
<g id="Layer_2" class="st2">
	<text transform="matrix(1 0 0 1 137.2064 132.3349)" class="st3 st4 st5 st6">kwack kwack</text>
</g>
</svg>
